<svg id="logo" xmlns="http://www.w3.org/2000/svg" viewBox="0 0 194.05 246.88"><defs><style>.cls-1{fill:#fff;}</style></defs><path class="cls-1" d="M-120.4,9.12a97,97,0,0,0-97,97,96.56,96.56,0,0,0,19.69,58.6C-180,188.09-120.4,256-120.4,256s59.62-67.91,77.33-91.26a96.56,96.56,0,0,0,19.69-58.6A97,97,0,0,0-120.4,9.12Zm.19,169.59a73.9,73.9,0,0,1-73.9-73.9,73.9,73.9,0,0,1,73.9-73.9,73.9,73.9,0,0,1,73.9,73.9A73.9,73.9,0,0,1-120.21,178.71Z" transform="translate(217.43 -9.12)"/><path class="cls-1" d="M-66.76,56.77s.86,5.16-1.61,8.68-8.93,13-11.18,15.74-17.3,20.49-33.58,32.74A67.14,67.14,0,0,0-107,86.38Z" transform="translate(217.43 -9.12)"/><path class="cls-1" d="M-143.15,115c-1.18-2.17-8.14-6.38-13.63-5.75-5,.57-18.16,7.09-22.26,13.93-1.69-.38-4.26-1.37-4.36-3.93s-5.42-3.6-4.89,1c.44,3.86,3,8.2,7.86,8.14,0,7.19,6.43,16,15.69,16.94,10.75,1.1,29.68-11.44,29.68-11.44l.29-14.22C-137.56,118.74-142,117.12-143.15,115ZM-155,135.44c-6.22,3.35-13.13,2.58-15.46-1.72s.81-10.52,7-13.87,13.12-2.59,15.45,1.71S-148.83,132.07-155,135.44Z" transform="translate(217.43 -9.12)"/><path class="cls-1" d="M-130.76,106.21a8.91,8.91,0,0,1,7.71-4.47,8.89,8.89,0,0,1,8.87,8.88,9.19,9.19,0,0,1-.32,2.35,100.08,100.08,0,0,0,4.3-17.7l2.42-58.8s-6.16,3.34-7.73,8.24-15.22,49-15,54.53C-130.52,100.33-130.61,102.82-130.76,106.21Z" transform="translate(217.43 -9.12)"/><path class="cls-1" d="M-96.95,149.54a21.43,21.43,0,0,0-1.14-6.46c-2.12-5.43-7.12-12.93-14.88-13-4.61-.08-6.32-.36-6.77-2.93s1.19-6,2.14-7.36a25.62,25.62,0,0,0,2.64-5.53,8.87,8.87,0,0,1-8.1,5.26,8.88,8.88,0,0,1-8-5.08c-.29,7.95-.54,17.75-.26,26.58,0,0-.12,27.75-.12,28.83h10.73c0-1.31-.11-21.7,0-22.92h0c.48-5,2.8-6.62,6-7,4.09-.48,7.14,2.68,8,9.69v20.21l9.86,3.33v-23.6Z" transform="translate(217.43 -9.12)"/><circle class="cls-1" cx="94.37" cy="101.5" r="5.8"/></svg>